<?xml version="1.0" encoding="UTF-8"?>
<svg id="Layer_2" data-name="Layer 2" xmlns="http://www.w3.org/2000/svg" xmlns:xlink="http://www.w3.org/1999/xlink" viewBox="0 0 3857.92 486.18">
  <defs>
    <style>
      .cls-1 {
        fill: #fff;
      }

      .cls-2 {
        fill: url(#GradientFill_2);
      }

      .cls-2, .cls-3, .cls-4, .cls-5 {
        fill-rule: evenodd;
      }

      .cls-3 {
        fill: #00dff4;
      }

      .cls-4 {
        fill: #0adaeb;
      }

      .cls-5 {
        fill: url(#GradientFill_3);
      }
    </style>
    <linearGradient id="GradientFill_3" data-name="GradientFill 3" x1="336.32" y1="50.88" x2="157.96" y2="455.4" gradientUnits="userSpaceOnUse">
      <stop offset="0" stop-color="#8ec40a"/>
      <stop offset="1" stop-color="#20ae0f"/>
    </linearGradient>
    <linearGradient id="GradientFill_2" data-name="GradientFill 2" x1="291.33" y1="369.62" x2="169.52" y2="147.89" gradientUnits="userSpaceOnUse">
      <stop offset="0" stop-color="#055da0"/>
      <stop offset="1" stop-color="#05c8dc"/>
    </linearGradient>
  </defs>
  <g id="Layer_1-2" data-name="Layer 1">
    <g>
      <g>
        <path class="cls-5" d="m243.09,0c-4.63,0-9.22.14-13.78.4,113.47,6.7,203.42,100.82,203.42,215.97s-96.87,216.36-216.36,216.36S7.1,342.77.4,229.31c-.25,4.56-.4,9.15-.4,13.78,0,134.25,108.84,243.09,243.09,243.09s243.09-108.83,243.09-243.09S377.34,0,243.09,0Z"/>
        <path class="cls-2" d="m117.26,67.54l-.53.46c-3.23,7.42-6.6,16.49-9.05,26.37h0s-.01.06-.01.06v.02s0,0,0,0c-5.24,21.24-6.23,46.29,7.51,67.19,30.55,46.45,117.09,17.82,117.09,17.82,0,0-66.39,34.89-56.63,111.36,17.11,134.09,222.19,54.74,227.67-85.39.09,2.36.15,4.73.15,7.12,0,103.33-83.76,187.09-187.09,187.09S29.27,315.87,29.27,212.54c0-70.9,39.43-132.58,97.57-164.32-3.69,6.3-6.89,13.01-9.58,19.31Z"/>
        <path class="cls-3" d="m181.68,159.4c26.99,0,49-22.01,49-49s-22.01-49-49-49-49,22.01-49,49,22.01,49,49,49Z"/>
        <path class="cls-4" d="m281.37,143.7c-13.84,0-25.06,11.22-25.06,25.06s11.22,25.06,25.06,25.06,25.06-11.22,25.06-25.06-11.22-25.06-25.06-25.06h0Zm37.56,52.83c12.41-18.88,4.19-45.74-6.6-64.19,32.9,17.97,55.22,52.88,55.22,93.01,0,58.49-47.41,105.9-105.9,105.9-20.8,0-40.19-6-56.55-16.36,89.93,12.6,102.17-79.56,47.55-108.27,0,0,48.99,16.21,66.27-10.09Z"/>
      </g>
      <g>
        <path class="cls-1" d="m856.81,65.78v351.59h-70.52v-149.6h-150.61v149.6h-70.52V65.78h70.52v144.57h150.61V65.78h70.52Z"/>
        <path class="cls-1" d="m996.84,122.7v88.15h118.37v55.91h-118.37v93.19h133.49v57.42h-204V65.28h204v57.42h-133.49Z"/>
        <path class="cls-1" d="m1409.89,350.38h-140.03l-23.17,66.99h-74.05l126.43-352.1h82.11l126.43,352.1h-74.55l-23.17-66.99Zm-19.14-56.42l-50.88-147.08-50.88,147.08h101.75Z"/>
        <path class="cls-1" d="m1625.47,361.46h115.86v55.91h-186.37V65.78h70.52v295.68Z"/>
        <path class="cls-1" d="m2025.43,65.78v56.92h-93.69v294.67h-70.52V122.7h-93.69v-56.92h257.9Z"/>
        <path class="cls-1" d="m2368.45,65.78v351.59h-70.52v-149.6h-150.61v149.6h-70.52V65.78h70.52v144.57h150.61V65.78h70.52Z"/>
        <path class="cls-1" d="m2717.53,65.78l-118.88,229.19v122.4h-70.52v-122.4l-119.38-229.19h79.59l75.55,160.68,75.06-160.68h78.58Z"/>
        <path class="cls-1" d="m3169.85,65.78v351.59h-70.52v-149.6h-150.61v149.6h-70.52V65.78h70.52v144.57h150.61V65.78h70.52Z"/>
        <path class="cls-1" d="m3308.88,65.78v217.6c0,23.85,6.21,42.06,18.64,54.66,12.42,12.59,29.88,18.89,52.39,18.89s40.46-6.3,52.89-18.89c12.42-12.59,18.64-30.81,18.64-54.66V65.78h71.03v217.1c0,29.89-6.47,55.16-19.39,75.81-12.93,20.65-30.22,36.19-51.88,46.59-21.66,10.41-45.76,15.62-72.28,15.62s-49.96-5.2-71.28-15.62c-21.33-10.4-38.2-25.94-50.62-46.59-12.43-20.65-18.64-45.92-18.64-75.81V65.78h70.52Z"/>
        <path class="cls-1" d="m3838.78,266.76c12.76,16.12,19.14,34.59,19.14,55.41,0,18.81-4.62,35.35-13.86,49.62-9.24,14.28-22.59,25.44-40.04,33.5-17.47,8.06-38.12,12.09-61.96,12.09h-151.62V65.78h145.07c23.84,0,44.4,3.86,61.7,11.58,17.29,7.73,30.39,18.47,39.29,32.24,8.89,13.78,13.35,29.39,13.35,46.85,0,20.49-5.46,37.61-16.37,51.38-10.92,13.77-25.44,23.51-43.57,29.22,19.81,3.7,36.1,13.6,48.86,29.72Zm-177.81-55.91h64.48c16.79,0,29.72-3.78,38.78-11.33,9.07-7.56,13.6-18.39,13.6-32.49s-4.54-25.01-13.6-32.74c-9.06-7.72-22-11.58-38.78-11.58h-64.48v88.15Zm111.07,137.01c9.57-8.06,14.36-19.47,14.36-34.25s-5.04-26.95-15.11-35.51c-10.07-8.56-23.68-12.84-40.8-12.84h-69.51v94.7h71.02c17.13,0,30.48-4.03,40.05-12.09Z"/>
      </g>
    </g>
  </g>
</svg>